<?xml version="1.0" encoding="UTF-8"?>
<svg width="75.799mm" height="78.912mm" version="1.1" viewBox="0 0 75.799 78.912" xmlns="http://www.w3.org/2000/svg" xmlns:cc="http://creativecommons.org/ns#" xmlns:dc="http://purl.org/dc/elements/1.1/" xmlns:rdf="http://www.w3.org/1999/02/22-rdf-syntax-ns#"><metadata><rdf:RDF><cc:Work rdf:about=""><dc:format>image/svg+xml</dc:format><dc:type rdf:resource="http://purl.org/dc/dcmitype/StillImage"/><dc:title/></cc:Work></rdf:RDF></metadata><path d="m26.613 0.001935c-0.44516-0.01616-0.91176 0.06863-1.586 0.26458-0.86096 0.2503-1.8682 0.82153-2.6257 1.4883-0.76703 0.67495-1.5278 1.7073-2.0236 2.7461-0.43709 0.91546-0.97488 2.5223-1.1953 3.5708-0.22437 1.0657-0.39824 3.2109-0.3948 4.8653 4e-3 2.0386 0.20515 3.9671 0.64595 6.1981 0.35851 1.8156 1.0625 4.2566 1.602 5.5562 0.52943 1.2748 1.0228 2.5664 1.0966 2.8706 0.11748 0.48472-0.12147 0.64286-1.9389 1.2821-1.1404 0.40111-3.0446 1.1816-4.2318 1.7337-1.1872 0.55245-2.9731 1.5323-3.9688 2.1776-0.99563 0.64532-2.6276 1.8676-3.6266 2.7166s-2.5358 2.4474-3.4148 3.5517c-0.87894 1.1044-2.1886 3.2216-2.9109 4.7051-0.72205 1.4835-1.4759 3.3885-1.6748 4.2333-0.2069 0.87948-0.36296 3.0111-0.36535 4.9863-0.0029 2.2402 0.13726 4.0031 0.39946 5.0271 0.22199 0.8673 0.88161 2.5807 1.4655 3.807 0.5842 1.2266 1.5962 2.9786 2.249 3.8933 0.65273 0.91493 1.9637 2.4323 2.913 3.3724 0.94906 0.9398 2.7619 2.417 4.0282 3.2825 1.2663 0.86545 3.0422 1.945 3.946 2.3999 0.90408 0.45482 2.5438 1.1845 3.6442 1.6216 1.1007 0.43709 2.921 1.0314 4.0452 1.3203 1.1242 0.28866 2.9963 0.7011 4.1605 0.91674 1.5674 0.28998 3.5581 0.36773 7.6729 0.29921 4.8236-0.08017 5.9224-0.18022 8.3344-0.75913 1.528-0.36671 3.7306-1.0175 4.8948-1.4464 1.1642-0.42862 3.2478-1.347 4.6302-2.0402 1.3824-0.69347 3.2664-1.7949 4.1863-2.4479 0.92022-0.65299 2.4351-1.8994 3.3657-2.7699s2.286-2.3839 3.0117-3.3631c0.72602-0.97922 1.8187-2.8209 2.4288-4.0923 0.84613-1.7634 1.0362-2.3848 0.80046-2.6205-0.236-0.23601 0.86826-0.90757 4.6566-2.8314 3.1173-1.5827 4.9661-2.6689 4.9661-2.9182 0-0.24818-1.7487-1.2838-4.671-2.7662-4.6707-2.3696-4.6706-2.3697-4.5367-3.1946 0.0913-0.56277-0.13062-1.4602-0.69815-2.8231-0.45747-1.0991-1.3798-2.8172-2.0495-3.8173-0.66966-1.0004-1.7184-2.3774-2.3306-3.0603-0.61251-0.68289-1.7564-1.7886-2.542-2.4572-0.78581-0.6686-1.465-1.4385-1.51-1.711-0.0447-0.27278 0.3283-1.3099 0.82889-2.3053 0.5006-0.99536 1.2077-2.7622 1.571-3.9264 0.36354-1.1642 0.93925-3.6049 1.2795-5.424 0.43286-2.3154 0.62075-4.2992 0.62683-6.6146 6e-3 -2.131-0.16224-4.2013-0.47181-5.8208-0.27834-1.456-0.85479-3.2955-1.3699-4.3718-0.48948-1.0218-1.3221-2.3031-1.851-2.8479-0.5289-0.54451-1.5196-1.2699-2.2019-1.6118-0.6821-0.34158-1.6595-0.69726-2.172-0.79013-0.51991-0.09446-1.5491-0.0091-2.3275 0.19275-0.76755 0.19897-2.0184 0.79127-2.7807 1.3162-0.76201 0.52467-1.9948 1.7613-2.7389 2.7476-0.74401 0.98637-1.9216 2.9243-2.6169 4.3067-0.69533 1.3824-1.8684 4.2224-2.6071 6.3112-0.73871 2.0889-1.4621 3.7957-1.6076 3.7925-0.14552-0.0029-0.58886-1.1172-0.98547-2.4753-0.39661-1.3581-1.0974-3.4811-1.557-4.7181-0.45984-1.2369-1.2832-3.1419-1.8299-4.2333-0.54663-1.0914-1.5391-2.7241-2.2056-3.6282-0.79719-1.0814-1.6897-1.9195-2.6086-2.4489-0.76808-0.44291-1.8505-0.93022-2.4045-1.0826-0.29181-0.08037-0.55095-0.12621-0.81804-0.13591zm26.378 5.18c0.43603-5.29e-4 1.0097 0.26869 1.3968 0.65577 0.36116 0.36116 0.88439 1.1876 1.1622 1.8361 0.27782 0.64823 0.63148 1.8622 0.786 2.6985 0.15452 0.83608 0.27886 3.0164 0.27595 4.8452-3e-3 1.8285-0.12372 4.1583-0.26872 5.1769-0.14472 1.0186-0.51347 2.8641-0.81907 4.101-0.30585 1.2369-0.84365 2.9704-1.1948 3.852-0.35111 0.88159-1.0132 2.0576-1.4718 2.6138-0.45826 0.55615-1.3181 1.2311-1.9105 1.5002-0.5924 0.26908-1.5532 0.48308-2.1353 0.47594-0.58208-0.0074-2.0073-0.24654-3.1672-0.53123-1.1599-0.28496-2.3802-0.69564-2.712-0.91312-0.53076-0.34766-0.60307-0.61282-0.60307-2.2143 0-1.2009 0.32101-3.109 0.94516-5.6162 0.51991-2.0884 1.4161-5.2181 1.9916-6.9551 0.57574-1.7367 1.5802-4.237 2.2324-5.5562 0.6522-1.3189 1.606-2.9682 2.1193-3.6649 0.51328-0.69665 1.3153-1.4999 1.7828-1.7849 0.46779-0.28522 1.1834-0.51882 1.5901-0.51935zm-26.658 0.05323c0.11019-0.0048 0.22506 0.0043 0.34624 0.02739 0.38602 0.07355 1.1371 0.62365 1.6692 1.2227 0.53207 0.59902 1.4401 2.0687 2.018 3.266s1.4176 3.3077 1.866 4.6902c0.4482 1.3824 1.1108 3.7042 1.4723 5.1594 0.36168 1.4552 0.74047 3.2796 0.84181 4.0545 0.13679 1.0483 0.0899 1.5012-0.18346 1.7673-0.20214 0.19685-1.0991 0.54499-1.9932 0.77359-0.8943 0.22886-2.0849 0.41549-2.6458 0.41496-0.56118-5.3e-4 -1.4016-0.23389-1.8681-0.51831-0.46673-0.28469-1.2087-1.147-1.649-1.9172-0.47201-0.82576-1.0987-2.648-1.5276-4.4426-0.61145-2.558-0.72828-3.6327-0.73277-6.7469-4e-3 -2.8236 0.10729-4.0682 0.46818-5.2359 0.26062-0.8427 0.71852-1.7769 1.018-2.0764 0.28218-0.28218 0.56966-0.42426 0.9002-0.43873zm8.7437 26.523c0.14602 0.0019 0.33754 0.02746 0.57309 0.05891 0.69109 0.09234 1.3502 0.29831 1.465 0.45785 0.11457 0.15954 0.43659 0.72119 0.71572 1.2485 0.27887 0.52758 0.84355 1.242 1.2547 1.5875 0.4109 0.34581 1.2363 0.84945 1.834 1.1188 0.80804 0.36433 1.079 0.63579 1.0568 1.0583-0.0164 0.31274 0.42292 1.6787 0.97616 3.036 0.55298 1.3576 1.3241 3.7112 1.7131 5.2302 0.65273 2.5477 0.70745 3.1768 0.70745 8.1153 0 4.0759-0.11443 5.9475-0.47956 7.8429-0.26352 1.3692-0.93921 3.8911-1.5017 5.6043-0.56251 1.7129-1.4238 3.9146-1.9136 4.8927-0.89033 1.7783-0.8904 1.7785-2.5988 1.8097-0.9398 0.0172-2.1711 0.12646-2.7363 0.24288-0.80671 0.16642-0.99638 0.13691-0.88367-0.13746 0.0791-0.19209 0.62444-1.3654 1.2118-2.6071 0.58764-1.2417 1.4319-3.3439 1.8769-4.6721 0.44502-1.3282 1.0431-3.551 1.3286-4.9392 0.28575-1.3885 0.64871-3.818 0.80666-5.3986 0.2085-2.0836 0.20678-3.6695-6e-3 -5.7676-0.16111-1.5915-0.53539-4.0142-0.83146-5.3831-0.2958-1.3692-0.95164-3.6786-1.4578-5.1325-0.50615-1.4539-1.5669-3.9331-2.3575-5.5092-1.1677-2.3286-1.3867-2.765-0.75396-2.7569zm-10.393 0.59841c0.21023 0.0078 0.42157 0.32853 0.90124 1.1886 0.42968 0.77047 1.3335 2.7174 2.0082 4.3264 0.67442 1.6089 1.5817 4.3029 2.0159 5.9872 0.45165 1.7515 0.92516 4.5488 1.1064 6.534 0.24368 2.6673 0.24585 4.2526 9e-3 6.8466-0.17489 1.9143-0.64443 4.6562-1.0847 6.3345-0.42704 1.6275-1.2627 4.1315-1.8578 5.565-0.59505 1.4338-1.3451 3.0356-1.6671 3.56-0.52494 0.85513-0.64 0.91887-1.1147 0.61857-0.29105-0.18415-1.6007-0.65966-2.9104-1.0563-1.3097-0.39688-3.1552-1.1012-4.1011-1.5653-0.94588-0.46408-2.6128-1.4201-3.7042-2.1244-1.0914-0.70406-2.8806-2.1883-3.9765-3.298-1.0956-1.1094-2.4262-2.7323-2.9569-3.607-0.53076-0.87445-1.2841-2.5396-1.6738-3.7005-0.55774-1.6621-0.7244-2.7156-0.78393-4.9527-0.0717-2.6808-0.04892-2.8265 0.40669-2.5828 0.26564 0.14208 1.0004 0.25838 1.6325 0.25838 0.63209 0 1.41-0.1826 1.7291-0.40618 0.31909-0.22357 0.71472-0.85456 0.8785-1.402 0.24183-0.80645 0.21901-1.1844-0.11834-1.9916-0.30956-0.7411-0.68889-1.111-1.4805-1.4428-0.73924-0.30983-1.0186-0.56616-0.91622-0.83974 0.0812-0.21669 0.59918-0.9906 1.1508-1.7198 0.55192-0.72919 1.8661-2.1389 2.9207-3.1321 1.0546-0.99325 2.5665-2.2213 3.36-2.729 0.79348-0.50747 2.2898-1.3286 3.3249-1.8247 1.0353-0.49609 2.8446-1.2182 4.0209-1.6051 1.1766-0.38656 2.3333-0.87134 2.5704-1.0775 0.12022-0.10451 0.21553-0.16531 0.31109-0.16175zm28.28 5.1496c0.56916 7.93e-4 0.93087 0.23771 1.9596 1.0315 0.81174 0.626 2.0918 1.8189 2.8448 2.651 0.75274 0.83185 1.8168 2.2679 2.3647 3.191 0.54796 0.9234 1.291 2.6081 1.6511 3.7434 0.50668 1.5978 0.65474 2.6346 0.65474 4.5915 0 1.4266-0.18029 3.2362-0.41444 4.1538-0.22781 0.89403-0.84825 2.5102-1.3782 3.5915-0.70115 1.4309-1.6046 2.6371-3.3218 4.4333-1.2972 1.357-3.1644 3.0026-4.1481 3.6566-0.98398 0.65405-1.8453 1.1891-1.9146 1.1891-0.0693 0 0.28558-1.0974 0.78961-2.4391 0.50377-1.3414 1.1951-3.6715 1.5353-5.1775 0.34026-1.5063 0.75095-4.0824 0.91261-5.7247 0.2069-2.0995 0.21424-3.7631 0.0248-5.6038-0.14843-1.4401-0.50588-3.7495-0.79427-5.132-0.28813-1.3824-0.7762-3.2874-1.0842-4.2333-0.30824-0.94588-0.77318-2.1619-1.0335-2.7016-0.4736-0.98187-0.47355-0.98141 0.6811-1.1545 0.26822-0.04022 0.48104-0.06643 0.67075-0.06614zm-31.391 10.361c-0.42359-0.01503-0.95404 0.05097-1.3384 0.17777-0.57203 0.18865-1.0832 0.59964-1.324 1.0656-0.2159 0.41725-0.39222 1.1276-0.39222 1.5787 0 0.45111 0.17609 1.1605 0.39119 1.5766 0.21511 0.41619 0.72126 0.88264 1.1245 1.0366 0.40323 0.15372 1.15 0.22807 1.6593 0.16536 0.6014-0.07435 1.1811-0.39725 1.6536-0.92139 0.53181-0.59002 0.7276-1.0856 0.7276-1.8412 0-0.71967-0.20329-1.2751-0.66869-1.8283-0.36777-0.43709-1.0218-0.8724-1.4542-0.96738-0.10801-0.02373-0.23759-0.03736-0.37879-0.04237zm-12.114 6.5257-0.0186 0.0011c-0.5763 0.03618-1.1507 0.30346-1.5322 0.74001-0.46963 0.61238-0.61921 1.4558-0.3793 2.1911 0.30761 1.1426 0.88751 2.2113 1.6929 3.0799 0.50407 0.5973 1.1866 1.034 1.941 1.2392 0.71731 0.21807 1.4858 0.19075 2.2066 0.0041 0.77649-0.17297 1.5225-0.48558 2.1658-0.95756 0.78036-0.54427 1.5076-1.2121 1.9244-2.0826 0.22687-0.42267 0.35239-0.92549 0.19171-1.3937-0.15426-0.59907-0.56565-1.1687-1.1803-1.3488-0.51291-0.18359-1.0878-0.08481-1.5436 0.20102-0.55711 0.3008-1.0147 0.74134-1.4816 1.1607-0.27109 0.25137-0.64836 0.36312-1.0118 0.28939-0.2196-0.03922-0.47608-0.08292-0.63717-0.2434-0.26306-0.58205-0.28708-1.2489-0.62632-1.8004-0.31335-0.64239-1.0053-1.0537-1.7115-1.08z" fill="#f00" stroke-width=".26458"/></svg>
