<?xml version="1.0" encoding="UTF-8"?>
<svg width="1137px" height="336px" viewBox="0 0 1137 336" xmlns="http://www.w3.org/2000/svg" xmlns:xlink="http://www.w3.org/1999/xlink" version="1.1">
 <!-- Generated by Pixelmator Pro 1.8 -->
 <path id="Shape" d="M146.5 335.555 C132.493 335.816 123.803 335.504 117.5 334.514 112.55 333.736 104.45 332.135 99.5 330.955 94.55 329.776 86.225 327.222 81 325.28 75.775 323.338 68.123 320.056 63.996 317.987 59.869 315.918 53.424 312.167 49.673 309.652 45.922 307.137 39.902 302.699 36.296 299.79 32.69 296.88 26.42 290.469 22.363 285.542 18.306 280.614 13.017 272.739 10.609 268.042 8.201 263.344 5.167 256.35 3.866 252.5 1.725 246.166 1.5 243.788 1.5 227.5 1.5 211.212 1.725 208.834 3.866 202.5 5.167 198.65 8.193 191.675 10.591 187 12.989 182.325 18.156 174.563 22.075 169.751 25.993 164.939 32.641 158.226 36.849 154.833 41.057 151.439 47.565 146.674 51.311 144.244 55.057 141.813 62.257 137.853 67.311 135.443 72.365 133.033 81.45 129.492 87.5 127.575 93.55 125.658 101.116 123.581 104.314 122.96 107.511 122.34 110.359 121.227 110.643 120.488 110.928 119.745 107.935 115.425 103.947 110.822 99.98 106.245 94.504 99.35 91.777 95.5 89.05 91.65 85.51 85.925 83.909 82.779 81.892 78.812 81.003 75.591 81.009 72.279 81.016 68.839 81.837 66.073 83.94 62.407 85.554 59.593 90.632 53.89 95.29 49.662 102.207 43.382 104.106 40.997 105.88 36.361 107.069 33.255 109.641 27.669 111.597 23.948 113.552 20.227 116.704 15.369 118.602 13.152 120.499 10.936 124.554 7.897 127.613 6.401 131.628 4.437 134.749 3.672 138.837 3.65 142.624 3.629 146.231 4.382 149.727 5.923 152.642 7.207 156.772 10.198 159.063 12.684 161.322 15.135 164.472 19.922 166.063 23.32 167.653 26.719 169.857 33.031 170.961 37.348 172.065 41.664 173.522 51.001 174.198 58.098 174.875 65.194 175.75 71 176.142 71 176.535 71 177.804 68.413 178.963 65.25 180.121 62.087 182.478 55.9 184.2 51.5 185.922 47.1 189.118 39.9 191.301 35.5 193.484 31.1 197.1 24.8 199.336 21.5 201.573 18.2 205.326 13.44 207.677 10.922 210.028 8.404 214.223 5.108 216.998 3.597 219.906 2.015 224.363 0.612 227.514 0.286 231.387 -0.113 234.277 0.216 237.416 1.415 239.854 2.346 243.649 4.412 245.851 6.007 248.586 7.988 250.822 10.937 252.916 15.323 254.821 19.316 256.546 25.284 257.48 31.12 258.306 36.279 259.099 45.9 259.241 52.5 259.49 64.049 259.646 64.82 263.373 73 265.503 77.675 268.155 83.975 269.267 87 270.432 90.17 271.307 95.061 271.332 98.547 271.363 102.872 270.723 105.94 269.086 109.321 267.828 111.921 263.421 117.639 259.294 122.026 255.166 126.414 248.237 132.966 243.895 136.588 239.553 140.21 236 143.564 236 144.042 236 144.52 240.173 148.234 245.274 152.294 250.374 156.355 257.069 162.562 260.151 166.088 263.233 169.615 268.034 176.006 270.821 180.291 273.607 184.577 277.307 191.766 279.043 196.267 281.513 202.672 281.96 204.834 281.102 206.208 280.149 207.734 280.892 208.445 286.752 211.612 290.464 213.618 299.8 218.463 307.5 222.379 316.113 226.76 321.5 230.077 321.5 231 321.5 231.946 313.554 236.563 299.984 243.5 280.75 253.333 278.504 254.739 278.804 256.756 278.989 257.997 278.033 261.433 276.678 264.392 275.324 267.35 271.847 273.31 268.952 277.635 266.057 281.961 260.046 289.101 255.594 293.502 251.142 297.903 243.45 304.259 238.5 307.625 233.55 310.992 225.409 315.797 220.409 318.304 215.409 320.81 206.665 324.48 200.978 326.459 195.292 328.439 185.208 331.211 178.569 332.62 168.503 334.757 163.181 335.244 146.5 335.555 Z M155.667 316.372 C158.875 316.096 164.65 315.445 168.5 314.924 172.35 314.402 176.712 313.726 178.193 313.421 179.888 313.072 180.698 312.375 180.377 311.541 180.098 310.812 181.639 306.68 183.801 302.358 185.964 298.036 189.351 290.437 191.329 285.472 193.306 280.506 196.071 271.731 197.474 265.972 198.876 260.212 200.501 249.988 201.085 243.25 201.837 234.564 201.833 227.335 201.069 218.402 200.477 211.473 199.076 202.136 197.956 197.652 196.836 193.168 195.035 186.8 193.953 183.5 192.872 180.2 190.845 174.8 189.45 171.5 186.912 165.5 186.912 165.5 182.628 165.5 179.608 165.5 176.905 164.611 173.47 162.487 170.79 160.83 167.684 157.911 166.567 155.999 165.451 154.087 163.825 149.593 162.953 146.012 161.369 139.5 161.369 139.5 156.934 138.954 154.495 138.653 150.99 138.093 149.145 137.708 146.655 137.188 145.92 137.329 146.298 138.254 146.577 138.939 149.534 145.125 152.867 152 156.201 158.875 160.725 169.9 162.92 176.5 165.116 183.1 167.945 194.116 169.207 200.98 171.02 210.848 171.5 217.028 171.5 230.5 171.5 243.92 171.019 250.151 169.234 259.837 167.988 266.601 165.346 277.167 163.363 283.317 161.379 289.468 157.755 299 155.307 304.5 152.86 310 150.628 315.034 150.346 315.686 149.972 316.555 151.396 316.739 155.667 316.372 Z M556.5 316.58 C540.948 316.839 533.424 316.545 527.5 315.449 523.1 314.634 516.024 313.075 511.775 311.984 507.526 310.892 500.647 308.647 496.487 306.995 492.328 305.343 486.129 302.585 482.712 300.866 479.296 299.147 472.584 295.065 467.798 291.794 463.012 288.523 456.161 282.941 452.574 279.389 448.986 275.836 444.032 270.101 441.565 266.643 439.098 263.186 435.273 256.564 433.065 251.928 430.858 247.293 428.365 240.818 427.526 237.54 426.535 233.67 426.005 227.007 426.016 218.54 426.025 211.075 426.615 203.018 427.397 199.694 428.149 196.501 430.997 189.301 433.726 183.694 436.456 178.087 441.407 170.085 444.729 165.911 448.051 161.737 453.858 155.696 457.634 152.487 461.41 149.278 467.579 144.657 471.342 142.218 475.105 139.779 481.855 136.076 486.342 133.988 490.829 131.901 498.026 128.952 502.336 127.436 509.205 125.02 510.109 124.422 509.665 122.59 509.386 121.44 507.521 116.558 505.52 111.74 503.481 106.828 500.82 97.602 499.465 90.74 497.799 82.308 497.039 75.02 497.023 67.315 497.01 61.062 497.668 52.954 498.516 48.926 499.349 44.963 501.382 38.889 503.034 35.429 504.908 31.503 507.782 27.601 510.681 25.05 513.544 22.53 517.351 20.372 520.605 19.426 524.682 18.241 526.751 18.13 529.692 18.94 531.786 19.516 535.876 21.357 538.779 23.031 542.252 25.032 545.626 28.2 548.639 32.287 551.158 35.704 554.909 41.875 556.975 46 559.041 50.125 562.153 57.325 563.891 62 565.628 66.675 568.276 74.7 569.775 79.833 571.274 84.966 572.95 89.176 573.5 89.187 574.05 89.199 576.784 82.749 579.576 74.854 582.368 66.959 586.802 56.225 589.43 51 592.058 45.775 596.509 38.45 599.321 34.722 602.133 30.994 606.791 26.321 609.671 24.338 612.552 22.354 617.281 20.115 620.182 19.363 623.124 18.6 627.013 18.277 628.978 18.634 630.915 18.985 634.609 20.33 637.187 21.621 639.766 22.913 643.51 25.654 645.509 27.712 647.508 29.771 650.656 34.615 652.506 38.477 654.453 42.545 656.632 49.497 657.684 55 658.854 61.121 659.488 68.946 659.467 77 659.444 85.751 658.733 93.249 657.097 102 655.811 108.875 653.635 118.1 652.261 122.5 650.888 126.9 648.216 133.578 646.324 137.34 644.432 141.102 643.023 145.022 643.192 146.053 643.362 147.083 645.929 149.993 648.899 152.52 651.868 155.047 656.191 159.226 658.506 161.807 660.82 164.388 664.784 169.593 667.315 173.374 669.846 177.154 673.331 183.646 675.06 187.8 677.205 192.951 678.044 196.343 677.699 198.47 677.193 201.588 677.193 201.588 694.846 210.544 705.891 216.147 712.5 220.062 712.5 221 712.5 221.942 705.512 226.048 693.73 232.03 679.412 239.301 675.238 241.838 676.13 242.73 677.021 243.621 676.304 245.97 673.106 252.635 670.8 257.44 666.669 264.4 663.925 268.101 661.182 271.802 656.059 277.522 652.542 280.812 649.025 284.102 643.301 288.814 639.823 291.282 636.346 293.75 629.225 297.913 624 300.534 618.775 303.154 610.9 306.624 606.5 308.244 602.1 309.865 593.775 312.325 588 313.711 578.884 315.899 574.731 316.277 556.5 316.58 Z M110.201 312.65 C111.137 311.467 113.545 306.675 115.554 302 117.562 297.325 120.452 289.874 121.974 285.443 123.497 281.011 125.684 273.361 126.835 268.443 127.986 263.524 129.454 254.1 130.097 247.5 130.786 240.431 130.999 230.44 130.614 223.186 130.255 216.413 129.078 206.312 127.997 200.739 126.917 195.166 124.64 186.123 122.938 180.643 121.235 175.164 117.849 166.14 115.412 160.59 112.975 155.041 109.603 148.096 107.918 145.158 105.386 140.743 104.651 140.067 103.677 141.259 103.03 142.053 98 144.104 92.5 145.816 87 147.529 78.686 150.779 74.025 153.038 69.363 155.297 62.601 159.106 58.996 161.502 55.392 163.899 49.336 168.703 45.538 172.18 41.74 175.656 35.956 182.1 32.686 186.5 26.739 194.5 26.739 194.5 29.589 194.838 31.156 195.023 33.629 195.791 35.084 196.544 36.54 197.296 38.466 199.462 39.365 201.357 40.264 203.252 41 205.994 41 207.451 41 208.907 40.317 211.419 39.483 213.033 38.649 214.646 36.646 216.649 35.033 217.483 33.419 218.317 30.338 219 28.185 219 25.863 219 23.294 218.233 21.872 217.114 19.474 215.228 19.474 215.228 19.184 223.267 19.024 227.689 19.384 234.466 19.983 238.327 20.582 242.187 22.408 248.683 24.041 252.761 25.674 256.839 28.668 262.724 30.696 265.838 32.723 268.952 38.233 275.337 42.94 280.027 47.648 284.717 54.65 290.637 58.5 293.181 62.35 295.726 68.65 299.403 72.5 301.353 76.35 303.304 84.675 306.544 91 308.554 97.325 310.564 103.85 312.792 105.5 313.504 108.216 314.677 108.661 314.596 110.201 312.65 Z M562.616 298.34 C564.752 297.9 569.406 297.487 572.958 297.422 579.415 297.304 579.415 297.304 582.78 290.583 584.631 286.886 587.885 278.564 590.011 272.09 592.137 265.615 594.692 256.084 595.688 250.909 597.068 243.745 597.5 236.671 597.5 221.266 597.5 202.601 597.293 200.222 594.826 190.593 593.356 184.852 590.442 175.958 588.352 170.827 586.261 165.697 584.601 160.533 584.663 159.351 584.747 157.754 583.722 156.728 580.668 155.351 578.409 154.333 575.29 152.431 573.737 151.124 572.183 149.818 570.049 147.118 568.995 145.124 567.94 143.131 566.722 141.007 566.289 140.404 565.855 139.801 563.363 139.022 560.751 138.673 556.003 138.039 556.003 138.039 561.435 148.871 564.423 154.828 568.432 164.198 570.345 169.693 572.258 175.188 574.738 183.917 575.856 189.092 576.975 194.266 578.389 203.422 578.998 209.437 579.801 217.367 579.808 223.362 579.02 231.237 578.423 237.211 577.051 246.392 575.971 251.64 574.892 256.887 572.632 265.288 570.95 270.308 569.268 275.328 566.076 283.274 563.855 287.967 561.635 292.66 559.574 297.094 559.275 297.82 558.849 298.857 559.567 298.969 562.616 298.34 Z M220.759 296.886 C221.351 296.674 224.976 294.347 228.814 291.715 232.652 289.082 239.395 283.176 243.798 278.59 248.202 274.003 253.822 266.804 256.287 262.592 258.753 258.38 261.835 251.686 263.135 247.717 265.13 241.629 265.5 238.467 265.5 227.5 265.5 216.533 265.13 213.371 263.135 207.283 261.835 203.314 258.761 196.634 256.306 192.439 253.85 188.244 248.389 181.197 244.17 176.78 239.952 172.363 233.671 166.729 230.214 164.261 226.757 161.793 222.327 159.412 220.369 158.971 217.318 158.282 216.874 158.405 217.257 159.834 217.503 160.75 219.743 165.55 222.236 170.5 224.728 175.45 228.155 183.432 229.851 188.237 231.547 193.043 233.925 202.043 235.136 208.237 236.486 215.149 237.365 223.556 237.411 230 237.454 236.093 236.711 244.907 235.64 251 234.625 256.775 232.502 265.55 230.921 270.5 229.341 275.45 226.415 282.875 224.419 287 222.423 291.125 220.541 295.124 220.236 295.886 219.931 296.649 220.166 297.099 220.759 296.886 Z M524.712 293.188 C525.929 291.206 528.764 285.152 531.013 279.733 533.262 274.315 536.422 264.85 538.036 258.699 539.7 252.356 541.474 241.993 542.135 234.758 543.031 224.954 543.023 218.962 542.102 208.881 541.417 201.378 539.626 190.806 537.919 184.186 536.278 177.82 532.849 167.637 530.3 161.556 527.75 155.475 524.335 148.117 522.711 145.205 520.074 140.477 519.583 140.061 518.129 141.325 517.233 142.104 512.862 143.936 508.415 145.397 503.969 146.859 497.13 149.588 493.217 151.463 489.305 153.338 483.65 156.442 480.651 158.36 477.652 160.279 471.937 164.92 467.951 168.674 463.965 172.428 458.998 177.755 456.912 180.511 454.827 183.267 452.869 186.192 452.562 187.011 452.175 188.045 453.232 189.015 456.026 190.186 459.018 191.44 460.452 192.837 461.622 195.638 462.897 198.689 462.982 200.118 462.068 203.166 461.449 205.235 459.954 207.619 458.748 208.464 457.542 209.309 454.601 210 452.212 210 449.823 210 447.047 209.56 446.043 209.023 444.321 208.102 444.234 208.654 444.505 218.786 444.73 227.241 445.361 231.221 447.469 237.503 448.942 241.891 451.788 248.185 453.794 251.49 455.8 254.796 460.829 260.931 464.97 265.124 469.112 269.318 475.875 274.927 480 277.588 484.125 280.25 490.425 283.863 494 285.617 497.575 287.371 504.55 290.034 509.5 291.534 514.45 293.033 519.4 294.83 520.5 295.526 522.294 296.661 522.728 296.42 524.712 293.188 Z M996.5 285.575 C975.422 285.91 972.462 285.739 961.078 283.532 954.246 282.208 943.896 279.495 938.078 277.503 932.26 275.512 923.391 271.9 918.368 269.476 913.346 267.053 905.219 262.383 900.308 259.099 895.398 255.814 888.063 250.061 884.009 246.313 879.955 242.566 873.955 235.9 870.675 231.5 867.396 227.1 862.522 219 859.844 213.5 857.166 208 854.022 199.619 852.856 194.875 850.818 186.582 850.761 184.752 851.367 147.375 851.713 125.994 852.441 104.225 852.984 99 853.526 93.775 854.66 85 855.503 79.5 856.346 74 857.691 67.222 858.491 64.437 859.292 61.653 860.988 57.828 862.261 55.937 863.533 54.047 865.853 51.885 867.416 51.134 868.978 50.383 871.945 49.791 874.008 49.82 876.072 49.848 880.627 51.199 884.13 52.822 887.634 54.445 895.225 58.826 901 62.557 906.775 66.289 914.034 70.663 917.13 72.276 922.76 75.21 922.76 75.21 933.63 71.55 939.608 69.537 949 66.787 954.5 65.438 960 64.09 969.863 62.474 976.418 61.847 983.111 61.207 994.292 60.965 1001.918 61.296 1010.664 61.675 1019.951 62.82 1028 64.513 1034.875 65.958 1045.943 68.99 1052.597 71.251 1064.693 75.362 1064.693 75.362 1069.015 73.109 1071.392 71.87 1078.099 67.798 1083.918 64.06 1089.738 60.322 1097.834 55.587 1101.909 53.539 1106.679 51.141 1110.776 49.792 1113.41 49.753 1115.66 49.719 1118.927 50.428 1120.669 51.329 1122.776 52.419 1124.679 54.73 1126.353 58.233 1127.736 61.13 1129.573 67.1 1130.433 71.5 1131.293 75.9 1132.658 85.575 1133.466 93 1134.274 100.425 1135.451 116.625 1136.081 129 1136.712 141.375 1137.023 159.825 1136.773 170 1136.411 184.725 1135.884 190.088 1134.191 196.284 1133.022 200.565 1130.307 207.818 1128.159 212.403 1126.01 216.987 1122.314 223.592 1119.945 227.082 1117.575 230.571 1112.006 237.211 1107.568 241.837 1103.131 246.463 1095.521 253.097 1090.658 256.579 1085.795 260.06 1077.47 265.129 1072.158 267.843 1066.846 270.557 1058.225 274.365 1053 276.305 1047.775 278.245 1038.1 281.043 1031.5 282.522 1020.797 284.92 1017.015 285.25 996.5 285.575 Z M619.755 282 C620.017 282 623.274 279.977 626.993 277.505 630.711 275.033 637.766 268.814 642.669 263.685 649.159 256.896 652.575 252.338 655.225 246.93 657.228 242.843 659.572 236.735 660.433 233.356 661.318 229.888 662 223.049 662 217.657 662 210.261 661.441 206.341 659.526 200.302 658.165 196.011 655.357 189.645 653.286 186.155 651.215 182.666 647.192 177.238 644.347 174.094 641.501 170.949 636.663 166.44 633.595 164.074 628.411 160.074 627.709 159.817 623.654 160.425 619.29 161.079 619.29 161.079 621.08 164.79 622.064 166.83 623.822 171.425 624.987 175 626.151 178.575 627.995 185.775 629.084 191 630.174 196.225 631.524 204.953 632.085 210.396 632.801 217.353 632.774 223.642 631.992 231.577 631.381 237.784 629.828 247.52 628.542 253.213 627.256 258.905 624.645 267.711 622.741 272.781 620.836 277.852 619.493 282 619.755 282 Z M992 266.871 C999.975 266.939 1010.55 266.5 1015.5 265.896 1020.45 265.292 1028.64 263.749 1033.701 262.469 1038.761 261.188 1047.086 258.476 1052.201 256.442 1057.315 254.408 1064.65 250.932 1068.5 248.717 1072.35 246.503 1079.209 241.814 1083.742 238.297 1088.275 234.781 1094.678 228.704 1097.97 224.792 1101.263 220.881 1105.592 214.94 1107.59 211.59 1109.588 208.241 1112.635 201.225 1114.361 196 1117.5 186.5 1117.5 186.5 1117.414 165 1117.366 153.175 1116.791 133.492 1116.136 121.261 1115.481 109.029 1114.275 93.287 1113.455 86.279 1112.542 78.477 1111.422 72.993 1110.565 72.136 1109.365 70.937 1108.521 71.097 1104.662 73.254 1102.185 74.638 1096.186 78.367 1091.329 81.54 1086.473 84.714 1079.185 88.891 1075.133 90.822 1070.266 93.142 1066.363 94.319 1063.633 94.29 1061.36 94.266 1057.25 93.251 1054.5 92.034 1051.75 90.818 1048.095 89.588 1046.378 89.301 1043.256 88.78 1043.256 88.78 1042.54 96.64 1042.146 100.963 1041.178 107.65 1040.389 111.5 1039.599 115.35 1037.816 120.842 1036.426 123.704 1035.035 126.566 1032.536 130.054 1030.872 131.454 1028.829 133.173 1026.654 133.999 1024.173 133.996 1022.153 133.994 1019.089 133.132 1017.365 132.081 1015.487 130.936 1013.192 128.03 1011.641 124.835 1010.217 121.901 1008.326 116.35 1007.44 112.5 1006.554 108.65 1005.662 100.386 1005.459 94.135 1005.256 87.884 1004.951 82.354 1004.782 81.847 1004.612 81.337 999.784 81.053 993.987 81.212 983.5 81.5 983.5 81.5 983.264 90 983.134 94.675 982.334 102.775 981.487 108 980.581 113.583 978.746 120.067 977.036 123.726 975.06 127.957 973.066 130.599 970.814 131.972 968.991 133.083 966.15 133.993 964.5 133.993 962.85 133.993 960.009 133.083 958.186 131.972 955.926 130.594 953.934 127.946 951.92 123.642 950.296 120.172 948.3 113.844 947.484 109.579 946.668 105.314 946 98.925 946 95.381 946 90.984 945.583 88.777 944.687 88.433 943.965 88.156 940.043 89.347 935.971 91.08 931.299 93.068 926.888 94.231 924.016 94.231 921.113 94.231 917.108 93.162 912.957 91.28 909.377 89.657 901.735 85.267 895.974 81.524 890.213 77.782 883.751 73.806 881.613 72.688 878.017 70.807 877.634 70.78 876.509 72.318 875.84 73.233 874.765 78.598 874.119 84.241 873.474 89.883 872.515 99.225 871.989 105 871.463 110.775 870.731 131.385 870.362 150.801 869.691 186.102 869.691 186.102 872.888 195.801 874.647 201.135 877.935 208.65 880.196 212.5 882.789 216.915 888.22 223.411 894.903 230.09 901.936 237.118 908.311 242.395 913.859 245.779 918.456 248.583 926.395 252.71 931.501 254.949 936.607 257.188 945.895 260.356 952.142 261.989 958.389 263.622 966.65 265.36 970.5 265.852 974.35 266.344 984.025 266.803 992 266.871 Z M51.79 262.993 C48.421 262.989 45.528 262.346 43.823 261.222 42.351 260.251 40.277 258.341 39.215 256.978 38.152 255.615 36.544 253.06 35.641 251.3 34.739 249.539 34 246.142 34 243.75 34 241.357 34.54 238.86 35.2 238.2 35.86 237.54 37.772 237.007 39.45 237.015 41.127 237.024 42.995 237.361 43.6 237.765 44.205 238.169 45.218 239.483 45.85 240.684 46.483 241.886 47 243.933 47 245.234 47 246.535 47.54 248.14 48.2 248.8 48.86 249.46 51.022 250 53.004 250 55.817 250 57.36 249.224 60.039 246.46 61.926 244.513 64.492 242.664 65.742 242.35 67.052 242.021 69.07 242.471 70.507 243.413 71.878 244.311 73 245.958 73 247.073 73 248.187 72.368 250.314 71.595 251.8 70.822 253.285 69.135 255.462 67.845 256.637 66.555 257.813 63.605 259.725 61.29 260.887 58.584 262.245 55.19 262.998 51.79 262.993 Z M472.332 250 C469.789 250 467.039 249.156 464.898 247.718 463.029 246.463 460.273 243.201 458.773 240.468 457.274 237.736 456.036 234.107 456.023 232.405 456.01 230.652 456.793 228.592 457.829 227.655 458.835 226.745 460.602 226 461.757 226 462.912 226 464.564 226.706 465.427 227.57 466.291 228.433 467.249 230.346 467.558 231.82 467.867 233.294 468.475 235.175 468.91 236 469.346 236.825 471.176 237.645 472.978 237.823 475.558 238.077 476.956 237.466 479.553 234.948 481.368 233.19 483.939 231.543 485.268 231.289 486.711 231.013 488.352 231.495 489.342 232.485 490.254 233.397 491 235.22 491 236.537 491 237.853 489.63 240.49 487.956 242.397 486.282 244.304 482.99 246.795 480.64 247.932 478.291 249.069 474.552 250 472.332 250 Z M90 205.845 C95.374 207.619 98.074 209.488 99.467 211.143 101.361 213.394 102 215.295 102 218.677 102 222.488 101.464 223.736 98.6 226.6 95.605 229.595 94.58 230 90 230 85.42 230 84.395 229.595 81.4 226.6 78.536 223.736 78 222.488 78 218.677 78 215.295 78.639 213.394 80.533 211.143 81.926 209.488 84.626 207.619 86.533 206.989 L90 205.845 Z M978.5 225.953 C975.75 225.936 972.15 225.332 970.5 224.611 968.85 223.89 966.021 222.054 964.214 220.531 962.407 219.008 960.269 216.488 959.464 214.931 958.659 213.373 958 210.707 958 209.004 958 207.051 958.906 205.003 960.455 203.455 961.838 202.071 964.077 201 965.586 201 967.352 201 969.391 202.195 971.573 204.509 973.393 206.439 975.526 208.265 976.312 208.566 977.099 208.868 978.451 208.406 979.317 207.541 980.183 206.675 981.923 204.13 983.185 201.885 984.446 199.64 986.698 197.173 988.19 196.402 989.681 195.631 992.212 195 993.815 195 995.419 195 997.916 195.933 999.366 197.073 1000.815 198.213 1003.145 201.097 1004.542 203.482 1005.94 205.867 1007.788 208.088 1008.648 208.418 1009.659 208.806 1011.393 207.731 1013.543 205.383 1015.375 203.383 1018.043 201.523 1019.472 201.25 1021.159 200.928 1022.8 201.411 1024.15 202.627 1025.294 203.657 1026.633 205.556 1027.127 206.847 1027.673 208.277 1027.636 210.638 1027.032 212.883 1026.485 214.911 1024.567 217.967 1022.769 219.673 1020.971 221.38 1018.06 223.501 1016.3 224.388 1014.539 225.275 1011.115 226 1008.69 226 1005.749 226 1002.486 225.042 998.885 223.12 993.489 220.241 993.489 220.241 988.495 223.112 984.78 225.248 982.219 225.976 978.5 225.953 Z M508 220.502 C506.075 220.739 503.253 220.458 501.729 219.877 500.205 219.295 498.292 217.532 497.479 215.959 496.666 214.386 496 211.705 496 210 496 208.295 496.667 205.611 497.483 204.034 498.393 202.273 500.324 200.718 502.486 200.005 504.423 199.366 507.343 199.136 508.976 199.495 510.61 199.854 513.083 201.498 514.473 203.15 516.232 205.241 517 207.341 517 210.061 517 212.917 516.26 214.789 514.25 217.019 512.464 219 510.273 220.221 508 220.502 Z M934.673 192.96 C932.378 192.938 929.268 192.252 927.763 191.435 926.257 190.618 924.344 188.633 923.513 187.024 922.681 185.416 922.002 182.614 922.004 180.8 922.006 178.985 922.916 176.01 924.026 174.19 925.145 172.354 927.665 170.202 929.684 169.359 931.886 168.438 934.601 168.078 936.56 168.445 938.341 168.779 940.957 169.965 942.375 171.08 943.792 172.195 945.467 174.825 946.096 176.925 946.963 179.821 946.953 181.613 946.053 184.339 945.4 186.317 943.512 189.074 941.857 190.467 939.659 192.316 937.719 192.989 934.673 192.96 Z M1053 192.956 C1051.075 192.936 1048.287 192.261 1046.804 191.456 1045.322 190.652 1043.409 188.994 1042.554 187.774 1041.699 186.554 1041 183.608 1041 181.228 1041 178.848 1041.655 175.634 1042.456 174.085 1043.257 172.537 1045.55 170.492 1047.553 169.542 1049.988 168.387 1052.312 168.024 1054.568 168.447 1056.423 168.795 1059.274 170.201 1060.904 171.573 1062.533 172.944 1064.364 175.573 1064.972 177.415 1065.864 180.119 1065.751 181.581 1064.388 184.989 1063.375 187.519 1061.454 189.971 1059.599 191.103 1057.894 192.142 1054.925 192.976 1053 192.956 Z M192.89 147.917 C194.754 147.962 196.779 147.403 197.39 146.673 198 145.942 201.875 143.393 206 141.008 210.125 138.622 216.65 134.311 220.5 131.427 224.35 128.543 231.1 122.942 235.5 118.98 239.9 115.017 245.413 109.531 247.75 106.789 251.369 102.542 252 101.139 252 97.343 252 94.033 250.547 89.746 246.358 80.693 240.716 68.502 240.716 68.502 239.809 50.501 239.215 38.708 238.315 30.61 237.201 27.018 236.019 23.21 234.716 21.103 232.931 20.115 231.423 19.28 229.308 18.957 227.812 19.332 226.41 19.684 223.408 21.827 221.14 24.095 218.873 26.362 214.999 31.543 212.531 35.608 210.063 39.673 206.176 47.386 203.892 52.749 201.608 58.112 198.059 67.675 196.005 74 193.95 80.325 190.218 93.6 187.71 103.5 184.825 114.887 182.891 125.045 182.445 131.149 181.77 140.405 181.834 140.873 184.021 142.649 185.275 143.667 187.02 145.25 187.9 146.167 188.78 147.083 191.025 147.871 192.89 147.917 Z M610.5 142.906 C612.7 142.933 616.332 142.124 618.571 141.107 620.81 140.09 624.059 137.539 625.791 135.437 627.524 133.335 630.027 128.89 631.354 125.558 632.681 122.226 634.713 115.675 635.869 111 637.024 106.325 638.418 99.35 638.965 95.5 639.513 91.65 639.969 82.845 639.98 75.934 639.991 69.022 639.522 60.782 638.938 57.622 638.354 54.461 637.016 49.871 635.966 47.421 634.916 44.97 632.939 41.848 631.574 40.483 630.111 39.02 627.943 38.002 626.295 38.004 624.758 38.006 622.054 38.889 620.286 39.967 618.519 41.044 615.486 44.08 613.546 46.713 611.606 49.346 608.002 55.579 605.537 60.564 603.072 65.55 599.276 75 597.1 81.564 594.925 88.129 591.538 99.958 589.573 107.851 587.214 117.327 586 124.539 586 129.078 586 135.131 586.273 136.133 588.279 137.447 589.533 138.269 594.145 139.821 598.529 140.898 602.913 141.974 608.3 142.878 610.5 142.906 Z M538.356 118.996 C540.476 118.998 544.976 118.292 548.356 117.427 551.735 116.563 555.125 115.247 555.889 114.503 556.922 113.497 557.099 111.787 556.582 107.825 556.199 104.896 554.768 98 553.401 92.5 552.035 87 549.53 78.225 547.836 73 546.141 67.775 542.968 59.798 540.784 55.273 538.6 50.748 535.167 45.194 533.156 42.93 531.145 40.666 528.307 38.587 526.848 38.309 525.016 37.96 523.559 38.441 522.137 39.863 521.005 40.995 519.274 44.526 518.289 47.711 516.925 52.124 516.505 56.828 516.52 67.5 516.537 79.27 516.979 83.332 519.29 93 520.911 99.783 523.279 106.67 525.063 109.791 526.727 112.702 529.53 115.962 531.294 117.038 533.057 118.113 536.235 118.994 538.356 118.996 Z M144.491 115.788 C149.932 115.526 150.604 115.244 151.812 112.715 152.544 111.184 153.625 104.161 154.215 97.108 154.815 89.942 155.031 75.952 154.706 65.393 154.31 52.532 153.599 44.598 152.477 40.543 151.571 37.267 149.931 32.767 148.833 30.543 147.735 28.319 145.923 25.712 144.807 24.75 143.664 23.764 141.163 23 139.076 23 136.338 23 134.693 23.716 132.759 25.75 131.32 27.263 129.028 30.75 127.664 33.5 126.3 36.25 124.024 41.374 122.607 44.886 121.189 48.399 118.927 52.718 117.579 54.485 116.232 56.251 112.121 60.127 108.443 63.098 104.766 66.069 101.309 69.468 100.763 70.652 99.979 72.347 100.356 73.883 102.539 77.894 104.062 80.693 107.543 85.8 110.273 89.242 113.003 92.684 118.446 98.815 122.368 102.867 126.291 106.919 131.525 111.548 134 113.155 137.906 115.691 139.291 116.039 144.491 115.788 Z" fill="#00a2ff" fill-opacity="1" stroke="none"/>
</svg>
