<?xml version="1.0" encoding="UTF-8" standalone="no"?>
<svg
   xmlns:dc="http://purl.org/dc/elements/1.1/"
   xmlns:cc="http://creativecommons.org/ns#"
   xmlns:rdf="http://www.w3.org/1999/02/22-rdf-syntax-ns#"
   xmlns:svg="http://www.w3.org/2000/svg"
   xmlns="http://www.w3.org/2000/svg"
   xmlns:xlink="http://www.w3.org/1999/xlink"
   xmlns:sodipodi="http://sodipodi.sourceforge.net/DTD/sodipodi-0.dtd"
   xmlns:inkscape="http://www.inkscape.org/namespaces/inkscape"
   version="1.1"
   preserveAspectRatio="xMidYMid meet"
   viewBox="0 0 45.169964 37.795277"
   width="45.169964"
   height="37.795277"
   id="svg277"
   sodipodi:docname="cat-stamp.svg"
   inkscape:version="1.0 (4035a4f, 2020-05-01)">
  <metadata
     id="metadata281">
    <rdf:RDF>
      <cc:Work
         rdf:about="">
        <dc:format>image/svg+xml</dc:format>
        <dc:type
           rdf:resource="http://purl.org/dc/dcmitype/StillImage" />
        <dc:title />
      </cc:Work>
    </rdf:RDF>
  </metadata>
  <sodipodi:namedview
     inkscape:document-rotation="0"
     pagecolor="#ffffff"
     bordercolor="#666666"
     borderopacity="1"
     objecttolerance="10"
     gridtolerance="10"
     guidetolerance="10"
     inkscape:pageopacity="0"
     inkscape:pageshadow="2"
     inkscape:window-width="1680"
     inkscape:window-height="1005"
     id="namedview279"
     showgrid="false"
     fit-margin-top="0"
     fit-margin-left="0"
     fit-margin-right="0"
     fit-margin-bottom="0"
     inkscape:zoom="11.1375"
     inkscape:cx="53.274324"
     inkscape:cy="20.328021"
     inkscape:window-x="0"
     inkscape:window-y="23"
     inkscape:window-maximized="0"
     inkscape:current-layer="g47" />
  <defs
     id="defs39">
    <path
       d="m 223,225 v 80 h -96 v -80 z"
       id="h3JfNZOeYe" />
    <path
       d="m 171.7,245.4 c 0,9.26 -8.21,16.77 -18.32,16.77 -10.11,0 -18.32,-7.51 -18.32,-16.77 0,-4.43 -0.14,-12.66 0,-14.91 0.14,-2.26 7.56,5.06 9.16,4.22 2.67,-1.39 5.88,-1.88 9.17,-1.88 3.38,0 6.43,0.82 9.15,2.29 1.6,0.86 9.18,-7.1 9.16,-4.65 -0.02,2.45 0,10.59 0,14.93 z"
       id="e4oFbDnvWT" />
    <path
       d="m 171.7,245.4 c 0,9.26 -8.21,16.77 -18.32,16.77 -10.11,0 -18.32,-7.51 -18.32,-16.77 0,-4.43 -0.14,-12.66 0,-14.91 0.14,-2.26 7.56,5.06 9.16,4.22 2.67,-1.39 5.88,-1.88 9.17,-1.88 3.38,0 6.43,0.82 9.15,2.29 1.6,0.86 9.18,-7.1 9.16,-4.65 -0.02,2.45 0,10.59 0,14.93 z"
       id="ahRK8jHtb" />
    <path
       d="m 158.35,245 c 0,-1.62 1.12,-2.94 2.5,-2.94 1.38,0 2.5,1.32 2.5,2.94 0,1.62 -1.12,2.94 -2.5,2.94 -1.38,0 -2.5,-1.32 -2.5,-2.94 z"
       id="e2au5SfZku" />
    <path
       d="m 158.35,245 c 0,-1.62 1.12,-2.94 2.5,-2.94 1.38,0 2.5,1.32 2.5,2.94 0,1.62 -1.12,2.94 -2.5,2.94 -1.38,0 -2.5,-1.32 -2.5,-2.94 z"
       id="eaJzD3c1G" />
    <path
       d="m 159.86,251.42 c 0,-1.79 -1.91,2.37 -3.78,1.75 -0.99,-0.33 -1.61,-3.17 -2.73,-3.17 -1.14,0 -1.84,2.87 -2.85,3.21 -1.85,0.62 -3.66,-3.56 -3.66,-1.79 0,1.97 1.46,3.57 3.26,3.57 1.8,0 3.25,-1.4 3.25,-3.37 0,1.97 1.46,3.37 3.26,3.37 1.79,0 3.25,-1.6 3.25,-3.57 z"
       id="a1XDSI1HRi" />
    <path
       d="m 143.35,245 c 0,-1.62 1.12,-2.94 2.5,-2.94 1.38,0 2.5,1.32 2.5,2.94 0,1.62 -1.12,2.94 -2.5,2.94 -1.38,0 -2.5,-1.32 -2.5,-2.94 z"
       id="a67tmUfid" />
    <path
       d="m 143.35,245 c 0,-1.62 1.12,-2.94 2.5,-2.94 1.38,0 2.5,1.32 2.5,2.94 0,1.62 -1.12,2.94 -2.5,2.94 -1.38,0 -2.5,-1.32 -2.5,-2.94 z"
       id="acbTNDFyat" />
    <path
       d="m 215,245.4 c 0,9.26 -8.21,16.77 -18.33,16.77 -10.11,0 -18.31,-7.51 -18.31,-16.77 0,-4.43 -0.14,-12.66 0,-14.91 0.14,-2.26 7.55,5.06 9.16,4.22 2.67,-1.39 5.87,-1.88 9.16,-1.88 3.39,0 6.44,0.82 9.16,2.29 1.6,0.86 9.18,-7.1 9.16,-4.65 -0.02,2.45 0,10.59 0,14.93 z"
       id="bfWZiqAbe" />
    <path
       d="m 215,245.4 c 0,9.26 -8.21,16.77 -18.33,16.77 -10.11,0 -18.31,-7.51 -18.31,-16.77 0,-4.43 -0.14,-12.66 0,-14.91 0.14,-2.26 7.55,5.06 9.16,4.22 2.67,-1.39 5.87,-1.88 9.16,-1.88 3.39,0 6.44,0.82 9.16,2.29 1.6,0.86 9.18,-7.1 9.16,-4.65 -0.02,2.45 0,10.59 0,14.93 z"
       id="c716Rjt4iS" />
    <path
       d="m 201.65,245 c 0,-1.62 1.12,-2.94 2.5,-2.94 1.38,0 2.5,1.32 2.5,2.94 0,1.62 -1.12,2.94 -2.5,2.94 -1.38,0 -2.5,-1.32 -2.5,-2.94 z"
       id="aQxnwvuD3" />
    <path
       d="m 201.65,245 c 0,-1.62 1.12,-2.94 2.5,-2.94 1.38,0 2.5,1.32 2.5,2.94 0,1.62 -1.12,2.94 -2.5,2.94 -1.38,0 -2.5,-1.32 -2.5,-2.94 z"
       id="dthFPinIV" />
    <path
       d="m 203.16,251.42 c 0,-1.79 -1.91,2.37 -3.79,1.75 -0.98,-0.33 -1.6,-3.17 -2.72,-3.17 -1.14,0 -1.85,2.87 -2.85,3.21 -1.86,0.62 -3.66,-3.56 -3.66,-1.79 0,1.97 1.46,3.57 3.25,3.57 1.8,0 3.26,-1.4 3.26,-3.37 0,1.97 1.45,3.37 3.25,3.37 1.8,0 3.26,-1.6 3.26,-3.57 z"
       id="a1umWEgl7A" />
    <path
       d="m 186.65,245 c 0,-1.62 1.12,-2.94 2.5,-2.94 1.38,0 2.5,1.32 2.5,2.94 0,1.62 -1.12,2.94 -2.5,2.94 -1.38,0 -2.5,-1.32 -2.5,-2.94 z"
       id="d4SsM6Zync" />
    <path
       d="m 186.65,245 c 0,-1.62 1.12,-2.94 2.5,-2.94 1.38,0 2.5,1.32 2.5,2.94 0,1.62 -1.12,2.94 -2.5,2.94 -1.38,0 -2.5,-1.32 -2.5,-2.94 z"
       id="auAXbSYn3" />
    <path
       d="m 171.7,283.23 c 0,9.26 -8.21,16.77 -18.32,16.77 -10.11,0 -18.32,-7.51 -18.32,-16.77 0,-4.43 -0.14,-12.67 0,-14.92 0.14,-2.25 7.56,5.07 9.16,4.23 2.67,-1.39 5.88,-1.88 9.17,-1.88 3.38,0 6.43,0.82 9.15,2.29 1.6,0.86 9.18,-7.1 9.16,-4.65 -0.02,2.44 0,10.59 0,14.93 z"
       id="e4irSChGo" />
    <path
       d="m 171.7,283.23 c 0,9.26 -8.21,16.77 -18.32,16.77 -10.11,0 -18.32,-7.51 -18.32,-16.77 0,-4.43 -0.14,-12.67 0,-14.92 0.14,-2.25 7.56,5.07 9.16,4.23 2.67,-1.39 5.88,-1.88 9.17,-1.88 3.38,0 6.43,0.82 9.15,2.29 1.6,0.86 9.18,-7.1 9.16,-4.65 -0.02,2.44 0,10.59 0,14.93 z"
       id="a181Ssfn8f" />
    <path
       d="m 158.35,282.83 c 0,-1.62 1.12,-2.94 2.5,-2.94 1.38,0 2.5,1.32 2.5,2.94 0,1.62 -1.12,2.93 -2.5,2.93 -1.38,0 -2.5,-1.31 -2.5,-2.93 z"
       id="b7QDFcBAHk" />
    <path
       d="m 158.35,282.83 c 0,-1.62 1.12,-2.94 2.5,-2.94 1.38,0 2.5,1.32 2.5,2.94 0,1.62 -1.12,2.93 -2.5,2.93 -1.38,0 -2.5,-1.31 -2.5,-2.93 z"
       id="a6PR2JZgy" />
    <path
       d="m 159.86,289.25 c 0,-1.79 -1.91,2.36 -3.78,1.75 -0.99,-0.33 -1.61,-3.17 -2.73,-3.17 -1.14,0 -1.84,2.87 -2.85,3.2 -1.85,0.62 -3.66,-3.56 -3.66,-1.78 0,1.97 1.46,3.57 3.26,3.57 1.8,0 3.25,-1.4 3.25,-3.38 0,1.98 1.46,3.38 3.26,3.38 1.79,0 3.25,-1.6 3.25,-3.57 z"
       id="c7rbO8Viy" />
    <path
       d="m 143.35,282.83 c 0,-1.62 1.12,-2.94 2.5,-2.94 1.38,0 2.5,1.32 2.5,2.94 0,1.62 -1.12,2.93 -2.5,2.93 -1.38,0 -2.5,-1.31 -2.5,-2.93 z"
       id="banUkcnfW" />
    <path
       d="m 143.35,282.83 c 0,-1.62 1.12,-2.94 2.5,-2.94 1.38,0 2.5,1.32 2.5,2.94 0,1.62 -1.12,2.93 -2.5,2.93 -1.38,0 -2.5,-1.31 -2.5,-2.93 z"
       id="dad5M37vW" />
    <path
       d="m 215,283.23 c 0,9.26 -8.21,16.77 -18.33,16.77 -10.11,0 -18.31,-7.51 -18.31,-16.77 0,-4.43 -0.14,-12.67 0,-14.92 0.14,-2.25 7.55,5.07 9.16,4.23 2.67,-1.39 5.87,-1.88 9.16,-1.88 3.39,0 6.44,0.82 9.16,2.29 1.6,0.86 9.18,-7.1 9.16,-4.65 -0.02,2.44 0,10.59 0,14.93 z"
       id="jcy59ZytR" />
    <path
       d="m 215,283.23 c 0,9.26 -8.21,16.77 -18.33,16.77 -10.11,0 -18.31,-7.51 -18.31,-16.77 0,-4.43 -0.14,-12.67 0,-14.92 0.14,-2.25 7.55,5.07 9.16,4.23 2.67,-1.39 5.87,-1.88 9.16,-1.88 3.39,0 6.44,0.82 9.16,2.29 1.6,0.86 9.18,-7.1 9.16,-4.65 -0.02,2.44 0,10.59 0,14.93 z"
       id="a1CwuOURo9" />
    <path
       d="m 201.65,282.83 c 0,-1.62 1.12,-2.94 2.5,-2.94 1.38,0 2.5,1.32 2.5,2.94 0,1.62 -1.12,2.93 -2.5,2.93 -1.38,0 -2.5,-1.31 -2.5,-2.93 z"
       id="a1Pm4NXjzp" />
    <path
       d="m 201.65,282.83 c 0,-1.62 1.12,-2.94 2.5,-2.94 1.38,0 2.5,1.32 2.5,2.94 0,1.62 -1.12,2.93 -2.5,2.93 -1.38,0 -2.5,-1.31 -2.5,-2.93 z"
       id="b4jrzJ2XP9" />
    <path
       d="m 203.16,289.25 c 0,-1.79 -1.91,2.36 -3.79,1.75 -0.98,-0.33 -1.6,-3.17 -2.72,-3.17 -1.14,0 -1.85,2.87 -2.85,3.2 -1.86,0.62 -3.66,-3.56 -3.66,-1.78 0,1.97 1.46,3.57 3.25,3.57 1.8,0 3.26,-1.4 3.26,-3.38 0,1.98 1.45,3.38 3.25,3.38 1.8,0 3.26,-1.6 3.26,-3.57 z"
       id="i10v8lNjj" />
    <path
       d="m 186.65,282.83 c 0,-1.62 1.12,-2.94 2.5,-2.94 1.38,0 2.5,1.32 2.5,2.94 0,1.62 -1.12,2.93 -2.5,2.93 -1.38,0 -2.5,-1.31 -2.5,-2.93 z"
       id="c3fxqMQkFS" />
    <path
       d="m 186.65,282.83 c 0,-1.62 1.12,-2.94 2.5,-2.94 1.38,0 2.5,1.32 2.5,2.94 0,1.62 -1.12,2.93 -2.5,2.93 -1.38,0 -2.5,-1.31 -2.5,-2.93 z"
       id="aT2DuRd1u" />
  </defs>
  <g
     id="g275"
     transform="matrix(0.460918,0,0,0.460918,-58.075668,-103.24563)">
    <g
       id="g273">
      <g
         id="g47">
        <use
           xlink:href="#h3JfNZOeYe"
           opacity="1"
           fill="#000000"
           fill-opacity="0"
           id="use41"
           x="0"
           y="0"
           width="100%"
           height="100%" />
        <g
           id="g45">
          <use
             xlink:href="#h3JfNZOeYe"
             opacity="1"
             fill-opacity="0"
             stroke="#000000"
             stroke-width="2"
             stroke-opacity="1"
             id="use43"
             x="0"
             y="0"
             width="100%"
             height="100%" />
        </g>
      </g>
      <g
         id="g55">
        <use
           xlink:href="#e4oFbDnvWT"
           opacity="1"
           fill="#000000"
           fill-opacity="0"
           id="use49"
           x="0"
           y="0"
           width="100%"
           height="100%" />
        <g
           id="g53">
          <use
             xlink:href="#e4oFbDnvWT"
             opacity="1"
             fill-opacity="0"
             stroke="#000000"
             stroke-width="1"
             stroke-opacity="0"
             id="use51"
             x="0"
             y="0"
             width="100%"
             height="100%" />
        </g>
      </g>
      <g
         id="g63">
        <use
           xlink:href="#ahRK8jHtb"
           opacity="1"
           fill="#000000"
           fill-opacity="0"
           id="use57"
           x="0"
           y="0"
           width="100%"
           height="100%" />
        <g
           id="g61">
          <use
             xlink:href="#ahRK8jHtb"
             opacity="1"
             fill-opacity="0"
             stroke="#000000"
             stroke-width="2"
             stroke-opacity="1"
             id="use59"
             x="0"
             y="0"
             width="100%"
             height="100%" />
        </g>
      </g>
      <g
         id="g71">
        <use
           xlink:href="#e2au5SfZku"
           opacity="1"
           fill="#020e0d"
           fill-opacity="1"
           id="use65"
           x="0"
           y="0"
           width="100%"
           height="100%" />
        <g
           id="g69">
          <use
             xlink:href="#e2au5SfZku"
             opacity="1"
             fill-opacity="0"
             stroke="#000000"
             stroke-width="1"
             stroke-opacity="0"
             id="use67"
             x="0"
             y="0"
             width="100%"
             height="100%" />
        </g>
      </g>
      <g
         id="g79">
        <use
           xlink:href="#eaJzD3c1G"
           opacity="1"
           fill="#000000"
           fill-opacity="0"
           id="use73"
           x="0"
           y="0"
           width="100%"
           height="100%" />
        <g
           id="g77">
          <use
             xlink:href="#eaJzD3c1G"
             opacity="1"
             fill-opacity="0"
             stroke="#000000"
             stroke-width="1"
             stroke-opacity="0"
             id="use75"
             x="0"
             y="0"
             width="100%"
             height="100%" />
        </g>
      </g>
      <g
         id="g87">
        <use
           xlink:href="#a1XDSI1HRi"
           opacity="1"
           fill="#000000"
           fill-opacity="1"
           id="use81"
           x="0"
           y="0"
           width="100%"
           height="100%" />
        <g
           id="g85">
          <use
             xlink:href="#a1XDSI1HRi"
             opacity="1"
             fill-opacity="0"
             stroke="#000000"
             stroke-width="1"
             stroke-opacity="0"
             id="use83"
             x="0"
             y="0"
             width="100%"
             height="100%" />
        </g>
      </g>
      <g
         id="g95">
        <use
           xlink:href="#a67tmUfid"
           opacity="1"
           fill="#020e0d"
           fill-opacity="1"
           id="use89"
           x="0"
           y="0"
           width="100%"
           height="100%" />
        <g
           id="g93">
          <use
             xlink:href="#a67tmUfid"
             opacity="1"
             fill-opacity="0"
             stroke="#000000"
             stroke-width="1"
             stroke-opacity="0"
             id="use91"
             x="0"
             y="0"
             width="100%"
             height="100%" />
        </g>
      </g>
      <g
         id="g103">
        <use
           xlink:href="#acbTNDFyat"
           opacity="1"
           fill="#000000"
           fill-opacity="0"
           id="use97"
           x="0"
           y="0"
           width="100%"
           height="100%" />
        <g
           id="g101">
          <use
             xlink:href="#acbTNDFyat"
             opacity="1"
             fill-opacity="0"
             stroke="#000000"
             stroke-width="1"
             stroke-opacity="0"
             id="use99"
             x="0"
             y="0"
             width="100%"
             height="100%" />
        </g>
      </g>
      <g
         id="g111">
        <use
           xlink:href="#bfWZiqAbe"
           opacity="1"
           fill="#000000"
           fill-opacity="0"
           id="use105"
           x="0"
           y="0"
           width="100%"
           height="100%" />
        <g
           id="g109">
          <use
             xlink:href="#bfWZiqAbe"
             opacity="1"
             fill-opacity="0"
             stroke="#000000"
             stroke-width="1"
             stroke-opacity="0"
             id="use107"
             x="0"
             y="0"
             width="100%"
             height="100%" />
        </g>
      </g>
      <g
         id="g119">
        <use
           xlink:href="#c716Rjt4iS"
           opacity="1"
           fill="#000000"
           fill-opacity="0"
           id="use113"
           x="0"
           y="0"
           width="100%"
           height="100%" />
        <g
           id="g117">
          <use
             xlink:href="#c716Rjt4iS"
             opacity="1"
             fill-opacity="0"
             stroke="#000000"
             stroke-width="2"
             stroke-opacity="1"
             id="use115"
             x="0"
             y="0"
             width="100%"
             height="100%" />
        </g>
      </g>
      <g
         id="g127">
        <use
           xlink:href="#aQxnwvuD3"
           opacity="1"
           fill="#020e0d"
           fill-opacity="1"
           id="use121"
           x="0"
           y="0"
           width="100%"
           height="100%" />
        <g
           id="g125">
          <use
             xlink:href="#aQxnwvuD3"
             opacity="1"
             fill-opacity="0"
             stroke="#000000"
             stroke-width="1"
             stroke-opacity="0"
             id="use123"
             x="0"
             y="0"
             width="100%"
             height="100%" />
        </g>
      </g>
      <g
         id="g135">
        <use
           xlink:href="#dthFPinIV"
           opacity="1"
           fill="#000000"
           fill-opacity="0"
           id="use129"
           x="0"
           y="0"
           width="100%"
           height="100%" />
        <g
           id="g133">
          <use
             xlink:href="#dthFPinIV"
             opacity="1"
             fill-opacity="0"
             stroke="#000000"
             stroke-width="1"
             stroke-opacity="0"
             id="use131"
             x="0"
             y="0"
             width="100%"
             height="100%" />
        </g>
      </g>
      <g
         id="g143">
        <use
           xlink:href="#a1umWEgl7A"
           opacity="1"
           fill="#000000"
           fill-opacity="1"
           id="use137"
           x="0"
           y="0"
           width="100%"
           height="100%" />
        <g
           id="g141">
          <use
             xlink:href="#a1umWEgl7A"
             opacity="1"
             fill-opacity="0"
             stroke="#000000"
             stroke-width="1"
             stroke-opacity="0"
             id="use139"
             x="0"
             y="0"
             width="100%"
             height="100%" />
        </g>
      </g>
      <g
         id="g151">
        <use
           xlink:href="#d4SsM6Zync"
           opacity="1"
           fill="#020e0d"
           fill-opacity="1"
           id="use145"
           x="0"
           y="0"
           width="100%"
           height="100%" />
        <g
           id="g149">
          <use
             xlink:href="#d4SsM6Zync"
             opacity="1"
             fill-opacity="0"
             stroke="#000000"
             stroke-width="1"
             stroke-opacity="0"
             id="use147"
             x="0"
             y="0"
             width="100%"
             height="100%" />
        </g>
      </g>
      <g
         id="g159">
        <use
           xlink:href="#auAXbSYn3"
           opacity="1"
           fill="#000000"
           fill-opacity="0"
           id="use153"
           x="0"
           y="0"
           width="100%"
           height="100%" />
        <g
           id="g157">
          <use
             xlink:href="#auAXbSYn3"
             opacity="1"
             fill-opacity="0"
             stroke="#000000"
             stroke-width="1"
             stroke-opacity="0"
             id="use155"
             x="0"
             y="0"
             width="100%"
             height="100%" />
        </g>
      </g>
      <g
         id="g167">
        <use
           xlink:href="#e4irSChGo"
           opacity="1"
           fill="#000000"
           fill-opacity="0"
           id="use161"
           x="0"
           y="0"
           width="100%"
           height="100%" />
        <g
           id="g165">
          <use
             xlink:href="#e4irSChGo"
             opacity="1"
             fill-opacity="0"
             stroke="#000000"
             stroke-width="1"
             stroke-opacity="0"
             id="use163"
             x="0"
             y="0"
             width="100%"
             height="100%" />
        </g>
      </g>
      <g
         id="g175">
        <use
           xlink:href="#a181Ssfn8f"
           opacity="1"
           fill="#000000"
           fill-opacity="0"
           id="use169"
           x="0"
           y="0"
           width="100%"
           height="100%" />
        <g
           id="g173">
          <use
             xlink:href="#a181Ssfn8f"
             opacity="1"
             fill-opacity="0"
             stroke="#000000"
             stroke-width="2"
             stroke-opacity="1"
             id="use171"
             x="0"
             y="0"
             width="100%"
             height="100%" />
        </g>
      </g>
      <g
         id="g183">
        <use
           xlink:href="#b7QDFcBAHk"
           opacity="1"
           fill="#020e0d"
           fill-opacity="1"
           id="use177"
           x="0"
           y="0"
           width="100%"
           height="100%" />
        <g
           id="g181">
          <use
             xlink:href="#b7QDFcBAHk"
             opacity="1"
             fill-opacity="0"
             stroke="#000000"
             stroke-width="1"
             stroke-opacity="0"
             id="use179"
             x="0"
             y="0"
             width="100%"
             height="100%" />
        </g>
      </g>
      <g
         id="g191">
        <use
           xlink:href="#a6PR2JZgy"
           opacity="1"
           fill="#000000"
           fill-opacity="0"
           id="use185"
           x="0"
           y="0"
           width="100%"
           height="100%" />
        <g
           id="g189">
          <use
             xlink:href="#a6PR2JZgy"
             opacity="1"
             fill-opacity="0"
             stroke="#000000"
             stroke-width="1"
             stroke-opacity="0"
             id="use187"
             x="0"
             y="0"
             width="100%"
             height="100%" />
        </g>
      </g>
      <g
         id="g199">
        <use
           xlink:href="#c7rbO8Viy"
           opacity="1"
           fill="#000000"
           fill-opacity="1"
           id="use193"
           x="0"
           y="0"
           width="100%"
           height="100%" />
        <g
           id="g197">
          <use
             xlink:href="#c7rbO8Viy"
             opacity="1"
             fill-opacity="0"
             stroke="#000000"
             stroke-width="1"
             stroke-opacity="0"
             id="use195"
             x="0"
             y="0"
             width="100%"
             height="100%" />
        </g>
      </g>
      <g
         id="g207">
        <use
           xlink:href="#banUkcnfW"
           opacity="1"
           fill="#020e0d"
           fill-opacity="1"
           id="use201"
           x="0"
           y="0"
           width="100%"
           height="100%" />
        <g
           id="g205">
          <use
             xlink:href="#banUkcnfW"
             opacity="1"
             fill-opacity="0"
             stroke="#000000"
             stroke-width="1"
             stroke-opacity="0"
             id="use203"
             x="0"
             y="0"
             width="100%"
             height="100%" />
        </g>
      </g>
      <g
         id="g215">
        <use
           xlink:href="#dad5M37vW"
           opacity="1"
           fill="#000000"
           fill-opacity="0"
           id="use209"
           x="0"
           y="0"
           width="100%"
           height="100%" />
        <g
           id="g213">
          <use
             xlink:href="#dad5M37vW"
             opacity="1"
             fill-opacity="0"
             stroke="#000000"
             stroke-width="1"
             stroke-opacity="0"
             id="use211"
             x="0"
             y="0"
             width="100%"
             height="100%" />
        </g>
      </g>
      <g
         id="g223">
        <use
           xlink:href="#jcy59ZytR"
           opacity="1"
           fill="#000000"
           fill-opacity="0"
           id="use217"
           x="0"
           y="0"
           width="100%"
           height="100%" />
        <g
           id="g221">
          <use
             xlink:href="#jcy59ZytR"
             opacity="1"
             fill-opacity="0"
             stroke="#000000"
             stroke-width="1"
             stroke-opacity="0"
             id="use219"
             x="0"
             y="0"
             width="100%"
             height="100%" />
        </g>
      </g>
      <g
         id="g231">
        <use
           xlink:href="#a1CwuOURo9"
           opacity="1"
           fill="#000000"
           fill-opacity="0"
           id="use225"
           x="0"
           y="0"
           width="100%"
           height="100%" />
        <g
           id="g229">
          <use
             xlink:href="#a1CwuOURo9"
             opacity="1"
             fill-opacity="0"
             stroke="#000000"
             stroke-width="2"
             stroke-opacity="1"
             id="use227"
             x="0"
             y="0"
             width="100%"
             height="100%" />
        </g>
      </g>
      <g
         id="g239">
        <use
           xlink:href="#a1Pm4NXjzp"
           opacity="1"
           fill="#020e0d"
           fill-opacity="1"
           id="use233"
           x="0"
           y="0"
           width="100%"
           height="100%" />
        <g
           id="g237">
          <use
             xlink:href="#a1Pm4NXjzp"
             opacity="1"
             fill-opacity="0"
             stroke="#000000"
             stroke-width="1"
             stroke-opacity="0"
             id="use235"
             x="0"
             y="0"
             width="100%"
             height="100%" />
        </g>
      </g>
      <g
         id="g247">
        <use
           xlink:href="#b4jrzJ2XP9"
           opacity="1"
           fill="#000000"
           fill-opacity="0"
           id="use241"
           x="0"
           y="0"
           width="100%"
           height="100%" />
        <g
           id="g245">
          <use
             xlink:href="#b4jrzJ2XP9"
             opacity="1"
             fill-opacity="0"
             stroke="#000000"
             stroke-width="1"
             stroke-opacity="0"
             id="use243"
             x="0"
             y="0"
             width="100%"
             height="100%" />
        </g>
      </g>
      <g
         id="g255">
        <use
           xlink:href="#i10v8lNjj"
           opacity="1"
           fill="#000000"
           fill-opacity="1"
           id="use249"
           x="0"
           y="0"
           width="100%"
           height="100%" />
        <g
           id="g253">
          <use
             xlink:href="#i10v8lNjj"
             opacity="1"
             fill-opacity="0"
             stroke="#000000"
             stroke-width="1"
             stroke-opacity="0"
             id="use251"
             x="0"
             y="0"
             width="100%"
             height="100%" />
        </g>
      </g>
      <g
         id="g263">
        <use
           xlink:href="#c3fxqMQkFS"
           opacity="1"
           fill="#020e0d"
           fill-opacity="1"
           id="use257"
           x="0"
           y="0"
           width="100%"
           height="100%" />
        <g
           id="g261">
          <use
             xlink:href="#c3fxqMQkFS"
             opacity="1"
             fill-opacity="0"
             stroke="#000000"
             stroke-width="1"
             stroke-opacity="0"
             id="use259"
             x="0"
             y="0"
             width="100%"
             height="100%" />
        </g>
      </g>
      <g
         id="g271">
        <use
           xlink:href="#aT2DuRd1u"
           opacity="1"
           fill="#000000"
           fill-opacity="0"
           id="use265"
           x="0"
           y="0"
           width="100%"
           height="100%" />
        <g
           id="g269">
          <use
             xlink:href="#aT2DuRd1u"
             opacity="1"
             fill-opacity="0"
             stroke="#000000"
             stroke-width="1"
             stroke-opacity="0"
             id="use267"
             x="0"
             y="0"
             width="100%"
             height="100%" />
        </g>
      </g>
    </g>
  </g>
</svg>
